<svg xmlns="http://www.w3.org/2000/svg" width="384" height="302.5" viewBox="0 0 384 302.5">
  <g id="Group_18" data-name="Group 18" transform="translate(-3445.5 162)">
    <path id="Subtraction_1" data-name="Subtraction 1" d="M-2303,266.5h-340a19.371,19.371,0,0,1-13.788-5.711A19.373,19.373,0,0,1-2662.5,247V22a19.371,19.371,0,0,1,5.711-13.788A19.372,19.372,0,0,1-2643,2.5h340a19.373,19.373,0,0,1,13.789,5.711A19.37,19.37,0,0,1-2283.5,22V247a19.372,19.372,0,0,1-5.712,13.789A19.373,19.373,0,0,1-2303,266.5Z" transform="translate(6110.5 -128.5)" fill="#fff" stroke="#eb1c24" stroke-width="5"/>
    <g id="Polygon_2" data-name="Polygon 2" transform="translate(3560 -162)" fill="#eb1c24">
      <path d="M 172.1686096191406 162.5 L 0.8313853740692139 162.5 L 86.5 1.066656827926636 L 172.1686096191406 162.5 Z" stroke="none"/>
      <path d="M 86.5 2.133270263671875 L 1.662750244140625 162 L 171.3372497558594 162 L 86.5 2.133270263671875 M 86.5 0 L 173 163 L 0 163 L 86.5 0 Z" stroke="none" fill="#707070"/>
    </g>
    <rect id="Rectangle_1482" data-name="Rectangle 1482" width="19" height="72" rx="9.5" transform="translate(3637 -126)" fill="#fff"/>
    <g id="Ellipse_98" data-name="Ellipse 98" transform="translate(3632 -43)" fill="#fff" stroke="#707070" stroke-width="1">
      <ellipse cx="14" cy="12" rx="14" ry="12" stroke="none"/>
      <ellipse cx="14" cy="12" rx="13.5" ry="11.5" fill="none"/>
    </g>
    <text id="Oops_Something_Went_Wrong_" data-name="Oops !! Something Went Wrong !!!" transform="translate(3457 53)" fill="#eb1c24" font-size="24" font-family="Roboto-Bold, Roboto" font-weight="700"><tspan x="10" y="10">Oops !! Something Went Wrong !!!</tspan></text>
  </g>
</svg>
